<?xml version="1.0" encoding="UTF-8"?>
<!DOCTYPE svg PUBLIC "-//W3C//DTD SVG 1.1//EN" "http://www.w3.org/Graphics/SVG/1.1/DTD/svg11.dtd">
<svg xmlns="http://www.w3.org/2000/svg" version="1.1" width="48px" height="48px" style="shape-rendering:geometricPrecision; text-rendering:geometricPrecision; image-rendering:optimizeQuality; fill-rule:evenodd; clip-rule:evenodd" xmlns:xlink="http://www.w3.org/1999/xlink">
<g><path style="opacity:0.964" fill="#000000" d="M 4.5,3.5 C 12.1667,3.5 19.8333,3.5 27.5,3.5C 27.5,4.83333 27.5,6.16667 27.5,7.5C 20.8333,7.5 14.1667,7.5 7.5,7.5C 7.5,14.1667 7.5,20.8333 7.5,27.5C 6.16667,27.5 4.83333,27.5 3.5,27.5C 3.19947,19.4144 3.53281,11.4144 4.5,3.5 Z"/></g>
<g><path style="opacity:0.964" fill="#000000" d="M 12.5,11.5 C 20.1667,11.5 27.8333,11.5 35.5,11.5C 35.5,12.8333 35.5,14.1667 35.5,15.5C 28.8333,15.5 22.1667,15.5 15.5,15.5C 15.5,22.1667 15.5,28.8333 15.5,35.5C 14.1667,35.5 12.8333,35.5 11.5,35.5C 11.1995,27.4144 11.5328,19.4144 12.5,11.5 Z"/></g>
<g><path style="opacity:0.947" fill="#000000" d="M 20.5,19.5 C 27.8409,19.3337 35.1742,19.5003 42.5,20C 43.626,23.7436 43.7927,27.577 43,31.5C 42,32.8333 41,32.8333 40,31.5C 39.5026,28.854 39.3359,26.1873 39.5,23.5C 34.1667,23.5 28.8333,23.5 23.5,23.5C 23.5,28.8333 23.5,34.1667 23.5,39.5C 26.1873,39.3359 28.854,39.5026 31.5,40C 32.8333,41 32.8333,42 31.5,43C 27.577,43.7927 23.7436,43.626 20,42.5C 19.2019,34.754 19.3686,27.0873 20.5,19.5 Z"/></g>
<g><path style="opacity:0.861" fill="#000000" d="M 44.5,40.5 C 43.8333,40.5 43.5,40.8333 43.5,41.5C 42.8333,41.5 42.5,41.8333 42.5,42.5C 41.8333,42.5 41.5,42.8333 41.5,43.5C 40.8333,43.5 40.5,43.8333 40.5,44.5C 36.8691,41.3707 33.3691,38.0374 30,34.5C 29.5065,32.8659 29.3398,31.1992 29.5,29.5C 31.1992,29.3398 32.8659,29.5065 34.5,30C 38.0374,33.3691 41.3707,36.8691 44.5,40.5 Z"/></g>
<g><path style="opacity:0.726" fill="#000000" d="M 44.5,40.5 C 45.5,41.1667 46.5,41.8333 47.5,42.5C 47.5,44.1667 47.5,45.8333 47.5,47.5C 45.8333,47.5 44.1667,47.5 42.5,47.5C 41.8333,46.5 41.1667,45.5 40.5,44.5C 41.1667,44.5 41.5,44.1667 41.5,43.5C 42.1667,43.5 42.5,43.1667 42.5,42.5C 43.1667,42.5 43.5,42.1667 43.5,41.5C 44.1667,41.5 44.5,41.1667 44.5,40.5 Z"/></g>
</svg>
