<?xml version="1.0" encoding="UTF-8"?>
<!DOCTYPE svg PUBLIC "-//W3C//DTD SVG 1.1//EN" "http://www.w3.org/Graphics/SVG/1.1/DTD/svg11.dtd">
<svg xmlns="http://www.w3.org/2000/svg" version="1.1" width="24px" height="24px" style="shape-rendering:geometricPrecision; text-rendering:geometricPrecision; image-rendering:optimizeQuality; fill-rule:evenodd; clip-rule:evenodd" xmlns:xlink="http://www.w3.org/1999/xlink">
<g><path style="opacity:0.957" fill="#000000" d="M 1.5,1.5 C 5.55461,1.17575 9.55461,1.50909 13.5,2.5C 10.2317,3.48702 6.89838,3.82036 3.5,3.5C 3.82036,6.89838 3.48702,10.2317 2.5,13.5C 1.50909,9.55461 1.17575,5.55461 1.5,1.5 Z"/></g>
<g><path style="opacity:0.957" fill="#000000" d="M 5.5,5.5 C 9.55461,5.17575 13.5546,5.50909 17.5,6.5C 14.2317,7.48702 10.8984,7.82036 7.5,7.5C 7.82036,10.8984 7.48702,14.2317 6.5,17.5C 5.50909,13.5546 5.17575,9.55461 5.5,5.5 Z"/></g>
<g><path style="opacity:0.89" fill="#000000" d="M 19.5,16.5 C 19.5,14.8333 19.5,13.1667 19.5,11.5C 16.8333,11.5 14.1667,11.5 11.5,11.5C 11.5,14.1667 11.5,16.8333 11.5,19.5C 13.1667,19.5 14.8333,19.5 16.5,19.5C 14.7211,21.3435 12.3878,22.0102 9.5,21.5C 9.5,17.5 9.5,13.5 9.5,9.5C 13.5,9.5 17.5,9.5 21.5,9.5C 22.0102,12.3878 21.3435,14.7211 19.5,16.5 Z"/></g>
<g><path style="opacity:0.732" fill="#000000" d="M 19.5,16.5 C 20.5,18.1667 21.8333,19.5 23.5,20.5C 23.5,21.5 23.5,22.5 23.5,23.5C 22.5,23.5 21.5,23.5 20.5,23.5C 19.5,21.8333 18.1667,20.5 16.5,19.5C 15.0582,18.1805 14.3915,16.5138 14.5,14.5C 16.5138,14.3915 18.1805,15.0582 19.5,16.5 Z"/></g>
</svg>
