<?xml version="1.0" encoding="UTF-8"?>
<!DOCTYPE svg PUBLIC "-//W3C//DTD SVG 1.1//EN" "http://www.w3.org/Graphics/SVG/1.1/DTD/svg11.dtd">
<svg xmlns="http://www.w3.org/2000/svg" version="1.1" width="96px" height="96px" style="shape-rendering:geometricPrecision; text-rendering:geometricPrecision; image-rendering:optimizeQuality; fill-rule:evenodd; clip-rule:evenodd" xmlns:xlink="http://www.w3.org/1999/xlink">
<g><path style="opacity:0.977" fill="#000000" d="M 11.5,7.5 C 26.0785,7.17626 40.5785,7.50959 55,8.5C 55.7581,10.7695 55.5914,12.9361 54.5,15C 41.5043,15.4999 28.5043,15.6666 15.5,15.5C 15.6666,28.5043 15.4999,41.5043 15,54.5C 12.6667,55.8333 10.3333,55.8333 8,54.5C 7.33333,40.1667 7.33333,25.8333 8,11.5C 8.68972,9.64977 9.85639,8.31643 11.5,7.5 Z"/></g>
<g><path style="opacity:0.977" fill="#000000" d="M 27.5,23.5 C 42.0785,23.1763 56.5785,23.5096 71,24.5C 71.7581,26.7695 71.5914,28.9361 70.5,31C 57.5043,31.4999 44.5043,31.6666 31.5,31.5C 31.6666,44.5043 31.4999,57.5043 31,70.5C 28.6667,71.8333 26.3333,71.8333 24,70.5C 23.3333,56.1667 23.3333,41.8333 24,27.5C 24.6897,25.6498 25.8564,24.3164 27.5,23.5 Z"/></g>
<g><path style="opacity:0.965" fill="#000000" d="M 43.5,39.5 C 57.5979,39.0351 71.5979,39.5351 85.5,41C 86.1258,41.7504 86.6258,42.5838 87,43.5C 87.6667,50.1667 87.6667,56.8333 87,63.5C 84.9361,64.5914 82.7695,64.7581 80.5,64C 79.5268,58.5934 79.1934,53.0934 79.5,47.5C 68.8333,47.5 58.1667,47.5 47.5,47.5C 47.5,58.1667 47.5,68.8333 47.5,79.5C 52.8437,79.334 58.1771,79.5006 63.5,80C 64.8333,82.3333 64.8333,84.6667 63.5,87C 56.8333,87.6667 50.1667,87.6667 43.5,87C 41.6667,86.5 40.5,85.3333 40,83.5C 39.3333,70.1667 39.3333,56.8333 40,43.5C 40.6897,41.6498 41.8564,40.3164 43.5,39.5 Z"/></g>
<g><path style="opacity:0.92" fill="#000000" d="M 59.5,59.5 C 62.5184,59.3354 65.5184,59.502 68.5,60C 75,66.5 81.5,73 88,79.5C 86.7635,82.776 84.5968,85.6094 81.5,88C 80.8333,88.6667 80.1667,88.6667 79.5,88C 73,81.5 66.5,75 60,68.5C 59.502,65.5184 59.3354,62.5184 59.5,59.5 Z"/></g>
<g><path style="opacity:0.82" fill="#000000" d="M 95.5,86.5 C 95.5,88.8333 95.5,91.1667 95.5,93.5C 94.5,93.8333 93.8333,94.5 93.5,95.5C 91.1667,95.5 88.8333,95.5 86.5,95.5C 85.5423,94.0384 84.3756,92.7051 83,91.5C 84.4309,87.8763 86.9309,84.8763 90.5,82.5C 92.1856,83.8569 93.8523,85.1902 95.5,86.5 Z"/></g>
</svg>
